. 
  
http://www.torrentday.com/        :     The Hottest Private Tracker On The Net!!!


               www . TorrentDay . Com 
(((((((((((((= Enjoy No RAR releases =))))))))))))))))))))


...................................NFO:....................................

.*******************************************************************************
                 Love.On.A.Pillow.1962.DVDRip.AC3.X264-BARC0DE
*******************************************************************************

-------------------------------------------------------------------------------
                              General Information
-------------------------------------------------------------------------------
Type.................: Movie
Name.................: Love on a Pillow (Le repos du guerrier (original title))
Movie Information....: http://www.imdb.com/title/tt0056404/
Genre................: Romance | Drama 
-------------------------------------------------------------------------------
                                    PLOT
-------------------------------------------------------------------------------

A young girl rescues a man from a suicide attempt. He turns out to be a sociopath, 
who begins to take over her life, abusing her both verbally and emotionally, yet 
she can't seem to tear herself away from him. 

-------------------------------------------------------------------------------
                                    CAST
-------------------------------------------------------------------------------
Brigitte Bardot	... 	Genevive Le Theil
Robert Hossein	... 	Renaud Sarti
Jean-Marc Bory	... 	Pierre Leroy
Michel Serrault	... 	Varange
Jacqueline Porel	... 	Mme. Le Theil, Genevive's Mother
Jean-Marc Tennberg	... 	Coco
Robert Dalban	... 	Police Sergeant
Ursula Kubler	... 	Nurse
Christian Melsen	... 	Police Inspector
Macha Mril	... 	Raphale (as Macha Meril)
James Robertson Justice	... 	Katov, Sculptor

-------------------------------------------------------------------------------
                                    MEDiA iNFO
-------------------------------------------------------------------------------

General
Complete name                    : Love.On.A.Pillow.1962.DVDRip.AC3.X264-BARC0DE.mkv
Format                           : Matroska
File size                        : 1.11 GiB
Duration                         : 1h 38mn
Overall bit rate                 : 1 614 Kbps

Video
ID                               : 1
Format                           : AVC
Format/Info                      : Advanced Video Codec
Format profile                   : High@L3.0
Format settings, CABAC           : Yes
Format settings, ReFrames        : 3 frames
Muxing mode                      : Container profile=Unknown@3.0
Codec ID                         : V_MPEG4/ISO/AVC
Duration                         : 1h 38mn
Bit rate                         : 1 398 Kbps
Width                            : 720 pixels
Height                           : 304 pixels
Display aspect ratio             : 2.35:1
Frame rate                       : 25.000 fps
Color space                      : YUV
Chroma subsampling               : 4:2:0
Bit depth                        : 8 bits
Scan type                        : Progressive
Bits/(Pixel*Frame)               : 0.255
Stream size                      : 977 MiB (86%)
Writing library                  : x264 core 79

Audio
ID                               : 2
Format                           : AC-3
Format/Info                      : Audio Coding 3
Mode extension                   : CM (complete main)
Codec ID                         : A_AC3
Duration                         : 1h 38mn
Bit rate mode                    : Constant
Bit rate                         : 192 Kbps
Channel(s)                       : 2 channels
Channel positions                : Front: L R
Sampling rate                    : 48.0 KHz
Stream size                      : 135 MiB (12%)
Language                         : French

Text #1
ID                               : 3
Format                           : VobSub
Codec ID                         : S_VOBSUB
Codec ID/Info                    : The same subtitle format used on DVDs
Language                         : English

Text #2
ID                               : 4
Format                           : VobSub
Codec ID                         : S_VOBSUB
Codec ID/Info                    : The same subtitle format used on DVDs
Language                         : German

Text #3
ID                               : 5
Format                           : VobSub
Codec ID                         : S_VOBSUB
Codec ID/Info                    : The same subtitle format used on DVDs
Language                         : Spanish

Text #4
ID                               : 6
Format                           : VobSub
Codec ID                         : S_VOBSUB
Codec ID/Info                    : The same subtitle format used on DVDs
Language                         : Portuguese

Menu
00:00:00.000                     : Chapter 1
00:05:13.840                     : Chapter 2
00:08:16.720                     : Chapter 3
00:13:50.040                     : Chapter 4
00:18:39.560                     : Chapter 5
00:24:03.520                     : Chapter 6
00:28:02.520                     : Chapter 7
00:31:53.360                     : Chapter 8
00:37:00.440                     : Chapter 9
00:41:17.840                     : Chapter 10
00:46:05.840                     : Chapter 11
00:52:14.840                     : Chapter 12
00:56:59.560                     : Chapter 13
01:01:29.640                     : Chapter 14
01:07:19.040                     : Chapter 15
01:10:47.640                     : Chapter 16
01:15:50.840                     : Chapter 17
01:19:56.920                     : Chapter 18
01:29:25.240                     : Chapter 19
01:34:08.040                     : Chapter 20